%TF.GenerationSoftware,KiCad,Pcbnew,8.0.4-8.0.4-0~ubuntu22.04.1*%
%TF.CreationDate,2024-08-07T15:41:08-07:00*%
%TF.ProjectId,clock,636c6f63-6b2e-46b6-9963-61645f706362,rev?*%
%TF.SameCoordinates,Original*%
%TF.FileFunction,Soldermask,Top*%
%TF.FilePolarity,Negative*%
%FSLAX46Y46*%
G04 Gerber Fmt 4.6, Leading zero omitted, Abs format (unit mm)*
G04 Created by KiCad (PCBNEW 8.0.4-8.0.4-0~ubuntu22.04.1) date 2024-08-07 15:41:08*
%MOMM*%
%LPD*%
G01*
G04 APERTURE LIST*
G04 Aperture macros list*
%AMRoundRect*
0 Rectangle with rounded corners*
0 $1 Rounding radius*
0 $2 $3 $4 $5 $6 $7 $8 $9 X,Y pos of 4 corners*
0 Add a 4 corners polygon primitive as box body*
4,1,4,$2,$3,$4,$5,$6,$7,$8,$9,$2,$3,0*
0 Add four circle primitives for the rounded corners*
1,1,$1+$1,$2,$3*
1,1,$1+$1,$4,$5*
1,1,$1+$1,$6,$7*
1,1,$1+$1,$8,$9*
0 Add four rect primitives between the rounded corners*
20,1,$1+$1,$2,$3,$4,$5,0*
20,1,$1+$1,$4,$5,$6,$7,0*
20,1,$1+$1,$6,$7,$8,$9,0*
20,1,$1+$1,$8,$9,$2,$3,0*%
%AMFreePoly0*
4,1,6,0.725000,-0.725000,-0.725000,-0.725000,-0.725000,0.125000,-0.125000,0.725000,0.725000,0.725000,0.725000,-0.725000,0.725000,-0.725000,$1*%
G04 Aperture macros list end*
%ADD10RoundRect,0.150000X0.150000X-0.587500X0.150000X0.587500X-0.150000X0.587500X-0.150000X-0.587500X0*%
%ADD11RoundRect,0.250000X-0.350000X-0.450000X0.350000X-0.450000X0.350000X0.450000X-0.350000X0.450000X0*%
%ADD12RoundRect,0.250000X0.475000X-0.337500X0.475000X0.337500X-0.475000X0.337500X-0.475000X-0.337500X0*%
%ADD13RoundRect,0.150000X-0.587500X-0.150000X0.587500X-0.150000X0.587500X0.150000X-0.587500X0.150000X0*%
%ADD14RoundRect,0.150000X-0.150000X0.587500X-0.150000X-0.587500X0.150000X-0.587500X0.150000X0.587500X0*%
%ADD15RoundRect,0.250000X-0.450000X0.350000X-0.450000X-0.350000X0.450000X-0.350000X0.450000X0.350000X0*%
%ADD16RoundRect,0.150000X0.150000X-0.825000X0.150000X0.825000X-0.150000X0.825000X-0.150000X-0.825000X0*%
%ADD17RoundRect,0.250000X0.337500X0.475000X-0.337500X0.475000X-0.337500X-0.475000X0.337500X-0.475000X0*%
%ADD18RoundRect,0.250000X0.350000X0.450000X-0.350000X0.450000X-0.350000X-0.450000X0.350000X-0.450000X0*%
%ADD19RoundRect,0.150000X0.587500X0.150000X-0.587500X0.150000X-0.587500X-0.150000X0.587500X-0.150000X0*%
%ADD20C,2.397760*%
%ADD21RoundRect,0.375000X0.375000X-0.625000X0.375000X0.625000X-0.375000X0.625000X-0.375000X-0.625000X0*%
%ADD22RoundRect,0.500000X1.400000X-0.500000X1.400000X0.500000X-1.400000X0.500000X-1.400000X-0.500000X0*%
%ADD23RoundRect,0.050000X-0.150000X-0.300000X0.150000X-0.300000X0.150000X0.300000X-0.150000X0.300000X0*%
%ADD24RoundRect,0.250000X-0.337500X-0.475000X0.337500X-0.475000X0.337500X0.475000X-0.337500X0.475000X0*%
%ADD25RoundRect,0.250000X0.450000X-0.350000X0.450000X0.350000X-0.450000X0.350000X-0.450000X-0.350000X0*%
%ADD26RoundRect,0.225000X0.225000X0.375000X-0.225000X0.375000X-0.225000X-0.375000X0.225000X-0.375000X0*%
%ADD27R,1.500000X0.900000*%
%ADD28RoundRect,0.250000X-0.475000X0.337500X-0.475000X-0.337500X0.475000X-0.337500X0.475000X0.337500X0*%
%ADD29RoundRect,0.237500X0.237500X-0.287500X0.237500X0.287500X-0.237500X0.287500X-0.237500X-0.287500X0*%
%ADD30C,3.600000*%
%ADD31C,5.700000*%
%ADD32RoundRect,0.050000X0.150000X0.300000X-0.150000X0.300000X-0.150000X-0.300000X0.150000X-0.300000X0*%
%ADD33RoundRect,0.249999X1.025001X1.025001X-1.025001X1.025001X-1.025001X-1.025001X1.025001X-1.025001X0*%
%ADD34C,2.550000*%
%ADD35RoundRect,0.062500X-0.062500X0.350000X-0.062500X-0.350000X0.062500X-0.350000X0.062500X0.350000X0*%
%ADD36RoundRect,0.062500X-0.350000X0.062500X-0.350000X-0.062500X0.350000X-0.062500X0.350000X0.062500X0*%
%ADD37R,1.230000X1.230000*%
%ADD38R,1.107440X1.107440*%
%ADD39C,1.107440*%
%ADD40R,0.400000X1.800000*%
%ADD41R,1.800000X0.400000*%
%ADD42R,0.800000X0.400000*%
%ADD43FreePoly0,270.000000*%
%ADD44R,1.450000X1.450000*%
%ADD45C,2.800000*%
%ADD46R,0.700000X1.700000*%
%ADD47R,1.700000X1.700000*%
%ADD48RoundRect,0.250000X-1.450000X0.537500X-1.450000X-0.537500X1.450000X-0.537500X1.450000X0.537500X0*%
%ADD49R,1.000000X1.250000*%
%ADD50C,2.184000*%
%ADD51O,1.700000X1.700000*%
%ADD52RoundRect,0.250000X0.350000X0.625000X-0.350000X0.625000X-0.350000X-0.625000X0.350000X-0.625000X0*%
%ADD53O,1.200000X1.750000*%
%ADD54R,2.600000X2.600000*%
%ADD55C,2.600000*%
G04 APERTURE END LIST*
D10*
%TO.C,Q63*%
X233111000Y-103045500D03*
X235011000Y-103045500D03*
X234061000Y-101170500D03*
%TD*%
D11*
%TO.C,R24*%
X111979200Y-86944200D03*
X113979200Y-86944200D03*
%TD*%
D12*
%TO.C,C3*%
X252755400Y-87651500D03*
X252755400Y-85576500D03*
%TD*%
D13*
%TO.C,Q10*%
X140921500Y-100269000D03*
X140921500Y-102169000D03*
X142796500Y-101219000D03*
%TD*%
D14*
%TO.C,Q49*%
X197977800Y-92536800D03*
X196077800Y-92536800D03*
X197027800Y-94411800D03*
%TD*%
D15*
%TO.C,R3*%
X250774200Y-85614000D03*
X250774200Y-87614000D03*
%TD*%
D14*
%TO.C,Q32*%
X189037000Y-88422000D03*
X187137000Y-88422000D03*
X188087000Y-90297000D03*
%TD*%
D16*
%TO.C,U4*%
X87630000Y-83718400D03*
X88900000Y-83718400D03*
X90170000Y-83718400D03*
X91440000Y-83718400D03*
X92710000Y-83718400D03*
X93980000Y-83718400D03*
X95250000Y-83718400D03*
X96520000Y-83718400D03*
X96520000Y-78768400D03*
X95250000Y-78768400D03*
X93980000Y-78768400D03*
X92710000Y-78768400D03*
X91440000Y-78768400D03*
X90170000Y-78768400D03*
X88900000Y-78768400D03*
X87630000Y-78768400D03*
%TD*%
%TO.C,U10*%
X204343000Y-83693000D03*
X205613000Y-83693000D03*
X206883000Y-83693000D03*
X208153000Y-83693000D03*
X209423000Y-83693000D03*
X210693000Y-83693000D03*
X211963000Y-83693000D03*
X213233000Y-83693000D03*
X213233000Y-78743000D03*
X211963000Y-78743000D03*
X210693000Y-78743000D03*
X209423000Y-78743000D03*
X208153000Y-78743000D03*
X206883000Y-78743000D03*
X205613000Y-78743000D03*
X204343000Y-78743000D03*
%TD*%
D17*
%TO.C,C29*%
X145055500Y-78511400D03*
X142980500Y-78511400D03*
%TD*%
D18*
%TO.C,R10*%
X147964400Y-115493800D03*
X145964400Y-115493800D03*
%TD*%
D15*
%TO.C,R1*%
X248513600Y-104638600D03*
X248513600Y-106638600D03*
%TD*%
D14*
%TO.C,Q56*%
X172044400Y-87914000D03*
X170144400Y-87914000D03*
X171094400Y-89789000D03*
%TD*%
D19*
%TO.C,Q65*%
X181150500Y-102185650D03*
X181150500Y-100285650D03*
X179275500Y-101235650D03*
%TD*%
D11*
%TO.C,R34*%
X91862400Y-86944200D03*
X93862400Y-86944200D03*
%TD*%
D20*
%TO.C,NX1*%
X102616000Y-105719880D03*
X92870020Y-109220000D03*
X91119960Y-105719880D03*
X91119960Y-101221540D03*
X91119960Y-96723200D03*
X92870020Y-93223080D03*
X96867980Y-92222320D03*
X100865940Y-93223080D03*
X102616000Y-96723200D03*
X102616000Y-101221540D03*
X100865940Y-109220000D03*
X96867980Y-110220760D03*
%TD*%
D11*
%TO.C,R35*%
X95875600Y-85953600D03*
X97875600Y-85953600D03*
%TD*%
D21*
%TO.C,U2*%
X237958600Y-120701200D03*
X240258600Y-120701200D03*
X242558600Y-120701200D03*
D22*
X240258600Y-114401200D03*
%TD*%
D10*
%TO.C,Q5*%
X112003800Y-113508000D03*
X113903800Y-113508000D03*
X112953800Y-111633000D03*
%TD*%
D11*
%TO.C,R73*%
X204079600Y-85902800D03*
X206079600Y-85902800D03*
%TD*%
D23*
%TO.C,D3*%
X244328200Y-110236000D03*
X245028200Y-110236000D03*
%TD*%
D11*
%TO.C,R27*%
X124018800Y-90576400D03*
X126018800Y-90576400D03*
%TD*%
%TO.C,R5*%
X233823000Y-124968000D03*
X235823000Y-124968000D03*
%TD*%
D24*
%TO.C,C20*%
X222732520Y-97227660D03*
X224807520Y-97227660D03*
%TD*%
D25*
%TO.C,R8*%
X240284000Y-89408000D03*
X240284000Y-87408000D03*
%TD*%
D26*
%TO.C,D4*%
X247903000Y-114300000D03*
X244603000Y-114300000D03*
%TD*%
D10*
%TO.C,Q64*%
X204160080Y-106855500D03*
X206060080Y-106855500D03*
X205110080Y-104980500D03*
%TD*%
D11*
%TO.C,R40*%
X130699000Y-102666800D03*
X132699000Y-102666800D03*
%TD*%
D16*
%TO.C,U11*%
X220980000Y-83690000D03*
X222250000Y-83690000D03*
X223520000Y-83690000D03*
X224790000Y-83690000D03*
X226060000Y-83690000D03*
X227330000Y-83690000D03*
X228600000Y-83690000D03*
X229870000Y-83690000D03*
X229870000Y-78740000D03*
X228600000Y-78740000D03*
X227330000Y-78740000D03*
X226060000Y-78740000D03*
X224790000Y-78740000D03*
X223520000Y-78740000D03*
X222250000Y-78740000D03*
X220980000Y-78740000D03*
%TD*%
D27*
%TO.C,D7*%
X222754020Y-99515660D03*
X222754020Y-102815660D03*
X227654020Y-102815660D03*
X227654020Y-99515660D03*
%TD*%
D11*
%TO.C,R46*%
X187087000Y-86360000D03*
X189087000Y-86360000D03*
%TD*%
D18*
%TO.C,FB2*%
X241173000Y-96139000D03*
X239173000Y-96139000D03*
%TD*%
D11*
%TO.C,R17*%
X157572200Y-90451700D03*
X159572200Y-90451700D03*
%TD*%
D28*
%TO.C,C9*%
X246837200Y-85525700D03*
X246837200Y-87600700D03*
%TD*%
D18*
%TO.C,R11*%
X143900400Y-111836200D03*
X141900400Y-111836200D03*
%TD*%
D14*
%TO.C,Q51*%
X222158600Y-88879200D03*
X220258600Y-88879200D03*
X221208600Y-90754200D03*
%TD*%
D18*
%TO.C,R21*%
X110363000Y-111963200D03*
X108363000Y-111963200D03*
%TD*%
D11*
%TO.C,R85*%
X178162200Y-90576400D03*
X180162200Y-90576400D03*
%TD*%
D14*
%TO.C,Q18*%
X93812400Y-88930000D03*
X91912400Y-88930000D03*
X92862400Y-90805000D03*
%TD*%
D10*
%TO.C,Q36*%
X232349000Y-109804200D03*
X234249000Y-109804200D03*
X233299000Y-107929200D03*
%TD*%
D14*
%TO.C,Q54*%
X226156600Y-87888600D03*
X224256600Y-87888600D03*
X225206600Y-89763600D03*
%TD*%
D11*
%TO.C,R61*%
X216601800Y-90398600D03*
X218601800Y-90398600D03*
%TD*%
D29*
%TO.C,D5*%
X232105200Y-124954000D03*
X232105200Y-123204000D03*
%TD*%
D11*
%TO.C,R33*%
X87798400Y-90576400D03*
X89798400Y-90576400D03*
%TD*%
D14*
%TO.C,Q60*%
X234223600Y-92536800D03*
X232323600Y-92536800D03*
X233273600Y-94411800D03*
%TD*%
D15*
%TO.C,R80*%
X168402000Y-104918000D03*
X168402000Y-106918000D03*
%TD*%
D30*
%TO.C,H1*%
X69596000Y-79756000D03*
D31*
X69596000Y-79756000D03*
%TD*%
D32*
%TO.C,D2*%
X246679200Y-110236000D03*
X245979200Y-110236000D03*
%TD*%
D18*
%TO.C,R39*%
X137271000Y-99822000D03*
X135271000Y-99822000D03*
%TD*%
D14*
%TO.C,Q62*%
X180121600Y-92562200D03*
X178221600Y-92562200D03*
X179171600Y-94437200D03*
%TD*%
D17*
%TO.C,C7*%
X250487000Y-108585000D03*
X248412000Y-108585000D03*
%TD*%
D14*
%TO.C,Q20*%
X117917000Y-87884000D03*
X116017000Y-87884000D03*
X116967000Y-89759000D03*
%TD*%
D17*
%TO.C,C28*%
X127910500Y-78511400D03*
X125835500Y-78511400D03*
%TD*%
D11*
%TO.C,R83*%
X170094400Y-85953600D03*
X172094400Y-85953600D03*
%TD*%
D27*
%TO.C,D12*%
X94417980Y-99571540D03*
X94417980Y-102871540D03*
X99317980Y-102871540D03*
X99317980Y-99571540D03*
%TD*%
D18*
%TO.C,R68*%
X202117200Y-115443000D03*
X200117200Y-115443000D03*
%TD*%
D10*
%TO.C,Q28*%
X150019980Y-106906300D03*
X151919980Y-106906300D03*
X150969980Y-105031300D03*
%TD*%
D17*
%TO.C,C33*%
X219350500Y-78486000D03*
X217275500Y-78486000D03*
%TD*%
D11*
%TO.C,R74*%
X208118200Y-86893400D03*
X210118200Y-86893400D03*
%TD*%
D14*
%TO.C,Q21*%
X97825600Y-87939400D03*
X95925600Y-87939400D03*
X96875600Y-89814400D03*
%TD*%
D18*
%TO.C,R79*%
X164499800Y-111988600D03*
X162499800Y-111988600D03*
%TD*%
D25*
%TO.C,R54*%
X175107600Y-113506000D03*
X175107600Y-111506000D03*
%TD*%
D24*
%TO.C,C21*%
X202675580Y-97228660D03*
X204750580Y-97228660D03*
%TD*%
D11*
%TO.C,R82*%
X166106600Y-86944200D03*
X168106600Y-86944200D03*
%TD*%
%TO.C,R25*%
X115967000Y-85902800D03*
X117967000Y-85902800D03*
%TD*%
D14*
%TO.C,Q27*%
X105445600Y-92435200D03*
X103545600Y-92435200D03*
X104495600Y-94310200D03*
%TD*%
%TO.C,Q16*%
X147914400Y-88930000D03*
X146014400Y-88930000D03*
X146964400Y-90805000D03*
%TD*%
D11*
%TO.C,R86*%
X179213000Y-103928050D03*
X181213000Y-103928050D03*
%TD*%
%TO.C,R32*%
X86833200Y-97028000D03*
X88833200Y-97028000D03*
%TD*%
D33*
%TO.C,SW3*%
X251447000Y-117348000D03*
D34*
X246647000Y-117348000D03*
%TD*%
D16*
%TO.C,U8*%
X164261800Y-83718400D03*
X165531800Y-83718400D03*
X166801800Y-83718400D03*
X168071800Y-83718400D03*
X169341800Y-83718400D03*
X170611800Y-83718400D03*
X171881800Y-83718400D03*
X173151800Y-83718400D03*
X173151800Y-78768400D03*
X171881800Y-78768400D03*
X170611800Y-78768400D03*
X169341800Y-78768400D03*
X168071800Y-78768400D03*
X166801800Y-78768400D03*
X165531800Y-78768400D03*
X164261800Y-78768400D03*
%TD*%
D18*
%TO.C,R9*%
X159089600Y-111988600D03*
X157089600Y-111988600D03*
%TD*%
D14*
%TO.C,Q50*%
X164439900Y-92435200D03*
X162539900Y-92435200D03*
X163489900Y-94310200D03*
%TD*%
D35*
%TO.C,U3*%
X242189000Y-90974500D03*
X241689000Y-90974500D03*
X241189000Y-90974500D03*
X240689000Y-90974500D03*
D36*
X240001500Y-91662000D03*
X240001500Y-92162000D03*
X240001500Y-92662000D03*
X240001500Y-93162000D03*
D35*
X240689000Y-93849500D03*
X241189000Y-93849500D03*
X241689000Y-93849500D03*
X242189000Y-93849500D03*
D36*
X242876500Y-93162000D03*
X242876500Y-92662000D03*
X242876500Y-92162000D03*
X242876500Y-91662000D03*
D37*
X241439000Y-92412000D03*
%TD*%
D24*
%TO.C,C24*%
X114569500Y-97278460D03*
X116644500Y-97278460D03*
%TD*%
D18*
%TO.C,R78*%
X168106600Y-115493800D03*
X166106600Y-115493800D03*
%TD*%
%TO.C,R66*%
X235213400Y-105029000D03*
X233213400Y-105029000D03*
%TD*%
D10*
%TO.C,Q38*%
X178221600Y-109875800D03*
X180121600Y-109875800D03*
X179171600Y-108000800D03*
%TD*%
D24*
%TO.C,C5*%
X249533500Y-114300000D03*
X251608500Y-114300000D03*
%TD*%
D28*
%TO.C,C1*%
X236575600Y-85322500D03*
X236575600Y-87397500D03*
%TD*%
D10*
%TO.C,Q4*%
X146014400Y-113508000D03*
X147914400Y-113508000D03*
X146964400Y-111633000D03*
%TD*%
D18*
%TO.C,R70*%
X196935600Y-98475800D03*
X194935600Y-98475800D03*
%TD*%
D30*
%TO.C,H3*%
X252476000Y-122656600D03*
D31*
X252476000Y-122656600D03*
%TD*%
D15*
%TO.C,R6*%
X248818400Y-85614000D03*
X248818400Y-87614000D03*
%TD*%
D25*
%TO.C,R50*%
X239141000Y-100695000D03*
X239141000Y-98695000D03*
%TD*%
D14*
%TO.C,Q57*%
X230159600Y-88879200D03*
X228259600Y-88879200D03*
X229209600Y-90754200D03*
%TD*%
%TO.C,Q59*%
X176042400Y-88925400D03*
X174142400Y-88925400D03*
X175092400Y-90800400D03*
%TD*%
%TO.C,Q22*%
X155915400Y-88930000D03*
X154015400Y-88930000D03*
X154965400Y-90805000D03*
%TD*%
D27*
%TO.C,D10*%
X148519980Y-99569000D03*
X148519980Y-102869000D03*
X153419980Y-102869000D03*
X153419980Y-99569000D03*
%TD*%
D20*
%TO.C,NX5*%
X210858100Y-105664000D03*
X201112120Y-109164120D03*
X199362060Y-105664000D03*
X199362060Y-101165660D03*
X199362060Y-96667320D03*
X201112120Y-93167200D03*
X205110080Y-92166440D03*
X209108040Y-93167200D03*
X210858100Y-96667320D03*
X210858100Y-101165660D03*
X209108040Y-109164120D03*
X205110080Y-110164880D03*
%TD*%
D28*
%TO.C,C10*%
X241554000Y-122863700D03*
X241554000Y-124938700D03*
%TD*%
D15*
%TO.C,R38*%
X94165380Y-104915700D03*
X94165380Y-106915700D03*
%TD*%
D30*
%TO.C,H2*%
X252476000Y-79756000D03*
D31*
X252476000Y-79756000D03*
%TD*%
D18*
%TO.C,R19*%
X126060200Y-111836200D03*
X124060200Y-111836200D03*
%TD*%
D11*
%TO.C,R45*%
X132985000Y-86360000D03*
X134985000Y-86360000D03*
%TD*%
D10*
%TO.C,Q8*%
X108413000Y-109977400D03*
X110313000Y-109977400D03*
X109363000Y-108102400D03*
%TD*%
D38*
%TO.C,N2*%
X133985000Y-110236000D03*
D39*
X133985000Y-104394000D03*
%TD*%
D10*
%TO.C,Q40*%
X200153100Y-113457200D03*
X202053100Y-113457200D03*
X201103100Y-111582200D03*
%TD*%
D17*
%TO.C,C32*%
X202713500Y-78486000D03*
X200638500Y-78486000D03*
%TD*%
D20*
%TO.C,NX6*%
X230952040Y-105664000D03*
X221206060Y-109164120D03*
X219456000Y-105664000D03*
X219456000Y-101165660D03*
X219456000Y-96667320D03*
X221206060Y-93167200D03*
X225204020Y-92166440D03*
X229201980Y-93167200D03*
X230952040Y-96667320D03*
X230952040Y-101165660D03*
X229201980Y-109164120D03*
X225204020Y-110164880D03*
%TD*%
D40*
%TO.C,U1*%
X254320000Y-89789000D03*
X253520000Y-89789000D03*
X252720000Y-89789000D03*
X251920000Y-89789000D03*
X251120000Y-89789000D03*
X250320000Y-89789000D03*
X249520000Y-89789000D03*
X248720000Y-89789000D03*
X247920000Y-89789000D03*
X247120000Y-89789000D03*
X246320000Y-89789000D03*
D41*
X244920000Y-91389000D03*
X244920000Y-92189000D03*
X244920000Y-92989000D03*
X244920000Y-93789000D03*
X244920000Y-94589000D03*
X244920000Y-95389000D03*
X244920000Y-96189000D03*
X244920000Y-96989000D03*
X244920000Y-97789000D03*
X244920000Y-98589000D03*
X244920000Y-99389000D03*
X244920000Y-100189000D03*
X244920000Y-100989000D03*
D40*
X246320000Y-102589000D03*
X247120000Y-102589000D03*
X247920000Y-102589000D03*
X248720000Y-102589000D03*
X249520000Y-102589000D03*
X250320000Y-102589000D03*
X251120000Y-102589000D03*
X251920000Y-102589000D03*
X252720000Y-102589000D03*
X253520000Y-102589000D03*
X254320000Y-102589000D03*
D42*
X255220000Y-100989000D03*
X255220000Y-100189000D03*
X255220000Y-99389000D03*
X255220000Y-98589000D03*
X255220000Y-97789000D03*
X255220000Y-96989000D03*
X255220000Y-96189000D03*
X255220000Y-95389000D03*
X255220000Y-94589000D03*
X255220000Y-93789000D03*
X255220000Y-92989000D03*
X255220000Y-92189000D03*
X255220000Y-91389000D03*
D43*
X252295000Y-94214000D03*
D44*
X250320000Y-94214000D03*
X248345000Y-94214000D03*
X252295000Y-96189000D03*
D45*
X250320000Y-96189000D03*
D44*
X248345000Y-96189000D03*
X252295000Y-98164000D03*
X250320000Y-98164000D03*
X248345000Y-98164000D03*
D46*
X255270000Y-102539000D03*
D47*
X244920000Y-102539000D03*
X244920000Y-89839000D03*
D46*
X255270000Y-89839000D03*
%TD*%
D25*
%TO.C,R42*%
X100838000Y-113496600D03*
X100838000Y-111496600D03*
%TD*%
D11*
%TO.C,R64*%
X228209600Y-86893400D03*
X230209600Y-86893400D03*
%TD*%
D17*
%TO.C,C31*%
X184425500Y-78486000D03*
X182350500Y-78486000D03*
%TD*%
D10*
%TO.C,Q44*%
X162561100Y-110005100D03*
X164461100Y-110005100D03*
X163511100Y-108130100D03*
%TD*%
D18*
%TO.C,R31*%
X89798400Y-111833900D03*
X87798400Y-111833900D03*
%TD*%
D14*
%TO.C,Q61*%
X213700400Y-92359000D03*
X211800400Y-92359000D03*
X212750400Y-94234000D03*
%TD*%
D48*
%TO.C,C18*%
X73406000Y-110765500D03*
X73406000Y-115040500D03*
%TD*%
D18*
%TO.C,R77*%
X180171600Y-111861600D03*
X178171600Y-111861600D03*
%TD*%
D17*
%TO.C,C27*%
X103526500Y-78511400D03*
X101451500Y-78511400D03*
%TD*%
D11*
%TO.C,R36*%
X99838000Y-86944200D03*
X101838000Y-86944200D03*
%TD*%
D10*
%TO.C,Q11*%
X116586000Y-106906300D03*
X118486000Y-106906300D03*
X117536000Y-105031300D03*
%TD*%
D16*
%TO.C,U9*%
X186055000Y-83690000D03*
X187325000Y-83690000D03*
X188595000Y-83690000D03*
X189865000Y-83690000D03*
X191135000Y-83690000D03*
X192405000Y-83690000D03*
X193675000Y-83690000D03*
X194945000Y-83690000D03*
X194945000Y-78740000D03*
X193675000Y-78740000D03*
X192405000Y-78740000D03*
X191135000Y-78740000D03*
X189865000Y-78740000D03*
X188595000Y-78740000D03*
X187325000Y-78740000D03*
X186055000Y-78740000D03*
%TD*%
D11*
%TO.C,R43*%
X184801000Y-102666800D03*
X186801000Y-102666800D03*
%TD*%
D38*
%TO.C,N3*%
X188087000Y-92278200D03*
D39*
X188087000Y-98120200D03*
%TD*%
D11*
%TO.C,R23*%
X108372400Y-90449400D03*
X110372400Y-90449400D03*
%TD*%
%TO.C,R63*%
X224171000Y-85902800D03*
X226171000Y-85902800D03*
%TD*%
D10*
%TO.C,Q47*%
X170152020Y-106906300D03*
X172052020Y-106906300D03*
X171102020Y-105031300D03*
%TD*%
D24*
%TO.C,C23*%
X148498480Y-97281000D03*
X150573480Y-97281000D03*
%TD*%
D49*
%TO.C,SW1*%
X238353600Y-77278000D03*
X238353600Y-85028000D03*
%TD*%
D10*
%TO.C,Q30*%
X95917980Y-106931700D03*
X97817980Y-106931700D03*
X96867980Y-105056700D03*
%TD*%
D15*
%TO.C,R2*%
X246557800Y-104638600D03*
X246557800Y-106638600D03*
%TD*%
D12*
%TO.C,C2*%
X254762000Y-87651500D03*
X254762000Y-85576500D03*
%TD*%
D14*
%TO.C,Q14*%
X110322400Y-92435200D03*
X108422400Y-92435200D03*
X109372400Y-94310200D03*
%TD*%
D10*
%TO.C,Q34*%
X187137000Y-114092200D03*
X189037000Y-114092200D03*
X188087000Y-112217200D03*
%TD*%
D24*
%TO.C,C16*%
X246104500Y-81280000D03*
X248179500Y-81280000D03*
%TD*%
D14*
%TO.C,Q13*%
X143850400Y-92562200D03*
X141950400Y-92562200D03*
X142900400Y-94437200D03*
%TD*%
D19*
%TO.C,Q29*%
X126995400Y-102169000D03*
X126995400Y-100269000D03*
X125120400Y-101219000D03*
%TD*%
D14*
%TO.C,Q53*%
X168056600Y-88930000D03*
X166156600Y-88930000D03*
X167106600Y-90805000D03*
%TD*%
D50*
%TO.C,J6*%
X78994000Y-107442000D03*
X78994000Y-102362000D03*
%TD*%
D14*
%TO.C,Q23*%
X121920000Y-88930000D03*
X120020000Y-88930000D03*
X120970000Y-90805000D03*
%TD*%
D11*
%TO.C,R75*%
X211725000Y-90373200D03*
X213725000Y-90373200D03*
%TD*%
D18*
%TO.C,R29*%
X105130600Y-111988600D03*
X103130600Y-111988600D03*
%TD*%
D17*
%TO.C,C30*%
X162632300Y-78511400D03*
X160557300Y-78511400D03*
%TD*%
D10*
%TO.C,Q45*%
X224254020Y-106855500D03*
X226154020Y-106855500D03*
X225204020Y-104980500D03*
%TD*%
D28*
%TO.C,C4*%
X234569000Y-85322500D03*
X234569000Y-87397500D03*
%TD*%
D16*
%TO.C,U5*%
X105156000Y-83718400D03*
X106426000Y-83718400D03*
X107696000Y-83718400D03*
X108966000Y-83718400D03*
X110236000Y-83718400D03*
X111506000Y-83718400D03*
X112776000Y-83718400D03*
X114046000Y-83718400D03*
X114046000Y-78768400D03*
X112776000Y-78768400D03*
X111506000Y-78768400D03*
X110236000Y-78768400D03*
X108966000Y-78768400D03*
X107696000Y-78768400D03*
X106426000Y-78768400D03*
X105156000Y-78768400D03*
%TD*%
D27*
%TO.C,D9*%
X168652020Y-99571540D03*
X168652020Y-102871540D03*
X173552020Y-102871540D03*
X173552020Y-99571540D03*
%TD*%
D14*
%TO.C,Q17*%
X113929200Y-88930000D03*
X112029200Y-88930000D03*
X112979200Y-90805000D03*
%TD*%
%TO.C,Q31*%
X134935000Y-88422000D03*
X133035000Y-88422000D03*
X133985000Y-90297000D03*
%TD*%
D10*
%TO.C,Q39*%
X220284000Y-113461800D03*
X222184000Y-113461800D03*
X221234000Y-111586800D03*
%TD*%
%TO.C,Q1*%
X157139600Y-110002800D03*
X159039600Y-110002800D03*
X158089600Y-108127800D03*
%TD*%
D15*
%TO.C,FB1*%
X237312200Y-94250000D03*
X237312200Y-96250000D03*
%TD*%
D28*
%TO.C,C8*%
X242874800Y-85525700D03*
X242874800Y-87600700D03*
%TD*%
D18*
%TO.C,R41*%
X191347600Y-99872800D03*
X189347600Y-99872800D03*
%TD*%
D10*
%TO.C,Q6*%
X91912400Y-113508000D03*
X93812400Y-113508000D03*
X92862400Y-111633000D03*
%TD*%
D11*
%TO.C,R14*%
X145964400Y-86944200D03*
X147964400Y-86944200D03*
%TD*%
D24*
%TO.C,C13*%
X239119500Y-110109000D03*
X241194500Y-110109000D03*
%TD*%
D11*
%TO.C,R15*%
X149952200Y-85953600D03*
X151952200Y-85953600D03*
%TD*%
D15*
%TO.C,R76*%
X202412600Y-104841800D03*
X202412600Y-106841800D03*
%TD*%
D18*
%TO.C,R58*%
X222234000Y-115443000D03*
X220234000Y-115443000D03*
%TD*%
D15*
%TO.C,R53*%
X227580020Y-95338660D03*
X227580020Y-97338660D03*
%TD*%
D16*
%TO.C,U7*%
X146685000Y-83718400D03*
X147955000Y-83718400D03*
X149225000Y-83718400D03*
X150495000Y-83718400D03*
X151765000Y-83718400D03*
X153035000Y-83718400D03*
X154305000Y-83718400D03*
X155575000Y-83718400D03*
X155575000Y-78768400D03*
X154305000Y-78768400D03*
X153035000Y-78768400D03*
X151765000Y-78768400D03*
X150495000Y-78768400D03*
X149225000Y-78768400D03*
X147955000Y-78768400D03*
X146685000Y-78768400D03*
%TD*%
D11*
%TO.C,R13*%
X141900400Y-90576400D03*
X143900400Y-90576400D03*
%TD*%
D14*
%TO.C,Q12*%
X88935600Y-99013800D03*
X87035600Y-99013800D03*
X87985600Y-100888800D03*
%TD*%
D18*
%TO.C,R48*%
X189087000Y-116205000D03*
X187087000Y-116205000D03*
%TD*%
D10*
%TO.C,Q3*%
X103170400Y-110005100D03*
X105070400Y-110005100D03*
X104120400Y-108130100D03*
%TD*%
D11*
%TO.C,R71*%
X196027800Y-90551000D03*
X198027800Y-90551000D03*
%TD*%
D14*
%TO.C,Q58*%
X210068200Y-88879200D03*
X208168200Y-88879200D03*
X209118200Y-90754200D03*
%TD*%
%TO.C,Q55*%
X206055000Y-87888600D03*
X204155000Y-87888600D03*
X205105000Y-89763600D03*
%TD*%
D15*
%TO.C,R22*%
X114833400Y-104892600D03*
X114833400Y-106892600D03*
%TD*%
D16*
%TO.C,U6*%
X129540000Y-83715400D03*
X130810000Y-83715400D03*
X132080000Y-83715400D03*
X133350000Y-83715400D03*
X134620000Y-83715400D03*
X135890000Y-83715400D03*
X137160000Y-83715400D03*
X138430000Y-83715400D03*
X138430000Y-78765400D03*
X137160000Y-78765400D03*
X135890000Y-78765400D03*
X134620000Y-78765400D03*
X133350000Y-78765400D03*
X132080000Y-78765400D03*
X130810000Y-78765400D03*
X129540000Y-78765400D03*
%TD*%
D11*
%TO.C,R65*%
X232273600Y-90551000D03*
X234273600Y-90551000D03*
%TD*%
D38*
%TO.C,N4*%
X188087000Y-110236000D03*
D39*
X188087000Y-104394000D03*
%TD*%
D18*
%TO.C,R57*%
X234299000Y-111785400D03*
X232299000Y-111785400D03*
%TD*%
D15*
%TO.C,R18*%
X148285200Y-104902000D03*
X148285200Y-106902000D03*
%TD*%
D14*
%TO.C,Q15*%
X89748400Y-92562200D03*
X87848400Y-92562200D03*
X88798400Y-94437200D03*
%TD*%
D11*
%TO.C,R72*%
X200091800Y-86893400D03*
X202091800Y-86893400D03*
%TD*%
D24*
%TO.C,C22*%
X168630520Y-97283540D03*
X170705520Y-97283540D03*
%TD*%
D20*
%TO.C,NX4*%
X176850040Y-105719880D03*
X167104060Y-109220000D03*
X165354000Y-105719880D03*
X165354000Y-101221540D03*
X165354000Y-96723200D03*
X167104060Y-93223080D03*
X171102020Y-92222320D03*
X175099980Y-93223080D03*
X176850040Y-96723200D03*
X176850040Y-101221540D03*
X175099980Y-109220000D03*
X171102020Y-110220760D03*
%TD*%
D18*
%TO.C,R30*%
X93862400Y-115493800D03*
X91862400Y-115493800D03*
%TD*%
%TO.C,R59*%
X218643200Y-111912400D03*
X216643200Y-111912400D03*
%TD*%
D49*
%TO.C,SW2*%
X232791000Y-77278000D03*
X232791000Y-85028000D03*
%TD*%
D11*
%TO.C,R84*%
X174082200Y-86944200D03*
X176082200Y-86944200D03*
%TD*%
D27*
%TO.C,D11*%
X114517000Y-99566460D03*
X114517000Y-102866460D03*
X119417000Y-102866460D03*
X119417000Y-99566460D03*
%TD*%
D10*
%TO.C,Q7*%
X141935200Y-109855000D03*
X143835200Y-109855000D03*
X142885200Y-107980000D03*
%TD*%
D11*
%TO.C,R81*%
X162515300Y-90449400D03*
X164515300Y-90449400D03*
%TD*%
D10*
%TO.C,Q37*%
X211648000Y-109952000D03*
X213548000Y-109952000D03*
X212598000Y-108077000D03*
%TD*%
D28*
%TO.C,C17*%
X243586000Y-81004500D03*
X243586000Y-83079500D03*
%TD*%
D10*
%TO.C,Q43*%
X196093800Y-109827300D03*
X197993800Y-109827300D03*
X197043800Y-107952300D03*
%TD*%
D11*
%TO.C,R62*%
X220208600Y-86893400D03*
X222208600Y-86893400D03*
%TD*%
D18*
%TO.C,R12*%
X142808200Y-98526600D03*
X140808200Y-98526600D03*
%TD*%
D10*
%TO.C,Q42*%
X216708400Y-109931200D03*
X218608400Y-109931200D03*
X217658400Y-108056200D03*
%TD*%
D29*
%TO.C,D6*%
X232121200Y-120890000D03*
X232121200Y-119140000D03*
%TD*%
D25*
%TO.C,R49*%
X154965400Y-113522000D03*
X154965400Y-111522000D03*
%TD*%
%TO.C,R51*%
X237210600Y-100695000D03*
X237210600Y-98695000D03*
%TD*%
D11*
%TO.C,R26*%
X119904000Y-86944200D03*
X121904000Y-86944200D03*
%TD*%
D18*
%TO.C,R67*%
X213587800Y-111933200D03*
X211587800Y-111933200D03*
%TD*%
D11*
%TO.C,R28*%
X125060200Y-103911400D03*
X127060200Y-103911400D03*
%TD*%
D18*
%TO.C,R69*%
X198043800Y-111810800D03*
X196043800Y-111810800D03*
%TD*%
D38*
%TO.C,N1*%
X133985000Y-92265500D03*
D39*
X133985000Y-98107500D03*
%TD*%
D11*
%TO.C,R37*%
X103470200Y-90449400D03*
X105470200Y-90449400D03*
%TD*%
D14*
%TO.C,Q25*%
X159536300Y-92435200D03*
X157636300Y-92435200D03*
X158586300Y-94310200D03*
%TD*%
D17*
%TO.C,C15*%
X238451300Y-92075000D03*
X236376300Y-92075000D03*
%TD*%
D48*
%TO.C,C19*%
X78994000Y-110765500D03*
X78994000Y-115040500D03*
%TD*%
D15*
%TO.C,R4*%
X244856000Y-85563200D03*
X244856000Y-87563200D03*
%TD*%
D24*
%TO.C,C6*%
X244602000Y-108585000D03*
X246677000Y-108585000D03*
%TD*%
D25*
%TO.C,R55*%
X209092800Y-113445800D03*
X209092800Y-111445800D03*
%TD*%
D13*
%TO.C,Q46*%
X195076600Y-100218200D03*
X195076600Y-102118200D03*
X196951600Y-101168200D03*
%TD*%
D17*
%TO.C,C26*%
X86000500Y-78511400D03*
X83925500Y-78511400D03*
%TD*%
D14*
%TO.C,Q19*%
X151912400Y-87939400D03*
X150012400Y-87939400D03*
X150962400Y-89814400D03*
%TD*%
D20*
%TO.C,NX2*%
X122715020Y-105714800D03*
X112969040Y-109214920D03*
X111218980Y-105714800D03*
X111218980Y-101216460D03*
X111218980Y-96718120D03*
X112969040Y-93218000D03*
X116967000Y-92217240D03*
X120964960Y-93218000D03*
X122715020Y-96718120D03*
X122715020Y-101216460D03*
X120964960Y-109214920D03*
X116967000Y-110215680D03*
%TD*%
D24*
%TO.C,C12*%
X239119500Y-112115600D03*
X241194500Y-112115600D03*
%TD*%
D10*
%TO.C,Q9*%
X87848400Y-109850400D03*
X89748400Y-109850400D03*
X88798400Y-107975400D03*
%TD*%
D28*
%TO.C,C11*%
X243586000Y-122863700D03*
X243586000Y-124938700D03*
%TD*%
D11*
%TO.C,R16*%
X153940000Y-86944200D03*
X155940000Y-86944200D03*
%TD*%
D10*
%TO.C,Q2*%
X124110200Y-109850400D03*
X126010200Y-109850400D03*
X125060200Y-107975400D03*
%TD*%
D25*
%TO.C,R44*%
X120954800Y-113496600D03*
X120954800Y-111496600D03*
%TD*%
D10*
%TO.C,Q41*%
X166156600Y-113508000D03*
X168056600Y-113508000D03*
X167106600Y-111633000D03*
%TD*%
%TO.C,Q33*%
X133035000Y-114094500D03*
X134935000Y-114094500D03*
X133985000Y-112219500D03*
%TD*%
D18*
%TO.C,R47*%
X134985000Y-116205000D03*
X132985000Y-116205000D03*
%TD*%
D19*
%TO.C,Q35*%
X235229400Y-99390200D03*
X235229400Y-97490200D03*
X233354400Y-98440200D03*
%TD*%
D11*
%TO.C,R7*%
X233772200Y-120904000D03*
X235772200Y-120904000D03*
%TD*%
D27*
%TO.C,D8*%
X202660080Y-99515660D03*
X202660080Y-102815660D03*
X207560080Y-102815660D03*
X207560080Y-99515660D03*
%TD*%
D14*
%TO.C,Q52*%
X202041800Y-88876900D03*
X200141800Y-88876900D03*
X201091800Y-90751900D03*
%TD*%
%TO.C,Q48*%
X218551800Y-92384400D03*
X216651800Y-92384400D03*
X217601800Y-94259400D03*
%TD*%
%TO.C,Q26*%
X125994200Y-92562200D03*
X124094200Y-92562200D03*
X125044200Y-94437200D03*
%TD*%
D18*
%TO.C,R20*%
X113953800Y-115493800D03*
X111953800Y-115493800D03*
%TD*%
D14*
%TO.C,Q24*%
X101813400Y-88930000D03*
X99913400Y-88930000D03*
X100863400Y-90805000D03*
%TD*%
D50*
%TO.C,J5*%
X73279000Y-107442000D03*
X73279000Y-102362000D03*
%TD*%
D15*
%TO.C,R60*%
X222504000Y-104841800D03*
X222504000Y-106841800D03*
%TD*%
D30*
%TO.C,H4*%
X69596000Y-122682000D03*
D31*
X69596000Y-122682000D03*
%TD*%
D24*
%TO.C,C25*%
X94433480Y-97284540D03*
X96508480Y-97284540D03*
%TD*%
D17*
%TO.C,C14*%
X238451300Y-90068400D03*
X236376300Y-90068400D03*
%TD*%
D11*
%TO.C,R52*%
X222754020Y-95195660D03*
X224754020Y-95195660D03*
%TD*%
D23*
%TO.C,D1*%
X248423200Y-110236000D03*
X249123200Y-110236000D03*
%TD*%
D25*
%TO.C,R56*%
X229209600Y-113445800D03*
X229209600Y-111445800D03*
%TD*%
D20*
%TO.C,NX3*%
X156718000Y-105717340D03*
X146972020Y-109217460D03*
X145221960Y-105717340D03*
X145221960Y-101219000D03*
X145221960Y-96720660D03*
X146972020Y-93220540D03*
X150969980Y-92219780D03*
X154967940Y-93220540D03*
X156718000Y-96720660D03*
X156718000Y-101219000D03*
X154967940Y-109217460D03*
X150969980Y-110218220D03*
%TD*%
D47*
%TO.C,J2*%
X218211400Y-121767600D03*
D51*
X220751400Y-121767600D03*
X223291400Y-121767600D03*
%TD*%
D47*
%TO.C,J3*%
X251709000Y-105664000D03*
D51*
X254249000Y-105664000D03*
%TD*%
D47*
%TO.C,J10*%
X131460000Y-122555000D03*
D51*
X134000000Y-122555000D03*
X136540000Y-122555000D03*
%TD*%
D52*
%TO.C,J1*%
X250539000Y-112014000D03*
D53*
X248539000Y-112014000D03*
X246539000Y-112014000D03*
X244539000Y-112014000D03*
%TD*%
D54*
%TO.C,J7*%
X72898000Y-96944200D03*
D55*
X72898000Y-91944200D03*
X72898000Y-86944200D03*
%TD*%
D47*
%TO.C,J8*%
X243559500Y-78359000D03*
D51*
X246099500Y-78359000D03*
%TD*%
D47*
%TO.C,J9*%
X190627000Y-122555000D03*
D51*
X188087000Y-122555000D03*
X185547000Y-122555000D03*
%TD*%
D47*
%TO.C,J4*%
X81280000Y-80264000D03*
D51*
X81280000Y-82804000D03*
X81280000Y-85344000D03*
X81280000Y-87884000D03*
X81280000Y-90424000D03*
%TD*%
M02*
