%TF.GenerationSoftware,KiCad,Pcbnew,8.0.4-8.0.4-0~ubuntu22.04.1*%
%TF.CreationDate,2024-08-07T15:41:08-07:00*%
%TF.ProjectId,clock,636c6f63-6b2e-46b6-9963-61645f706362,rev?*%
%TF.SameCoordinates,Original*%
%TF.FileFunction,Soldermask,Bot*%
%TF.FilePolarity,Negative*%
%FSLAX46Y46*%
G04 Gerber Fmt 4.6, Leading zero omitted, Abs format (unit mm)*
G04 Created by KiCad (PCBNEW 8.0.4-8.0.4-0~ubuntu22.04.1) date 2024-08-07 15:41:08*
%MOMM*%
%LPD*%
G01*
G04 APERTURE LIST*
G04 Aperture macros list*
%AMRoundRect*
0 Rectangle with rounded corners*
0 $1 Rounding radius*
0 $2 $3 $4 $5 $6 $7 $8 $9 X,Y pos of 4 corners*
0 Add a 4 corners polygon primitive as box body*
4,1,4,$2,$3,$4,$5,$6,$7,$8,$9,$2,$3,0*
0 Add four circle primitives for the rounded corners*
1,1,$1+$1,$2,$3*
1,1,$1+$1,$4,$5*
1,1,$1+$1,$6,$7*
1,1,$1+$1,$8,$9*
0 Add four rect primitives between the rounded corners*
20,1,$1+$1,$2,$3,$4,$5,0*
20,1,$1+$1,$4,$5,$6,$7,0*
20,1,$1+$1,$6,$7,$8,$9,0*
20,1,$1+$1,$8,$9,$2,$3,0*%
G04 Aperture macros list end*
%ADD10C,2.397760*%
%ADD11C,3.600000*%
%ADD12C,5.700000*%
%ADD13RoundRect,0.249999X1.025001X1.025001X-1.025001X1.025001X-1.025001X-1.025001X1.025001X-1.025001X0*%
%ADD14C,2.550000*%
%ADD15R,1.107440X1.107440*%
%ADD16C,1.107440*%
%ADD17C,2.800000*%
%ADD18C,2.184000*%
%ADD19R,1.700000X1.700000*%
%ADD20O,1.700000X1.700000*%
%ADD21RoundRect,0.250000X0.350000X0.625000X-0.350000X0.625000X-0.350000X-0.625000X0.350000X-0.625000X0*%
%ADD22O,1.200000X1.750000*%
%ADD23R,2.600000X2.600000*%
%ADD24C,2.600000*%
G04 APERTURE END LIST*
D10*
%TO.C,NX1*%
X102616000Y-105719880D03*
X92870020Y-109220000D03*
X91119960Y-105719880D03*
X91119960Y-101221540D03*
X91119960Y-96723200D03*
X92870020Y-93223080D03*
X96867980Y-92222320D03*
X100865940Y-93223080D03*
X102616000Y-96723200D03*
X102616000Y-101221540D03*
X100865940Y-109220000D03*
X96867980Y-110220760D03*
%TD*%
D11*
%TO.C,H1*%
X69596000Y-79756000D03*
D12*
X69596000Y-79756000D03*
%TD*%
D13*
%TO.C,SW3*%
X251447000Y-117348000D03*
D14*
X246647000Y-117348000D03*
%TD*%
D11*
%TO.C,H3*%
X252476000Y-122656600D03*
D12*
X252476000Y-122656600D03*
%TD*%
D10*
%TO.C,NX5*%
X210858100Y-105664000D03*
X201112120Y-109164120D03*
X199362060Y-105664000D03*
X199362060Y-101165660D03*
X199362060Y-96667320D03*
X201112120Y-93167200D03*
X205110080Y-92166440D03*
X209108040Y-93167200D03*
X210858100Y-96667320D03*
X210858100Y-101165660D03*
X209108040Y-109164120D03*
X205110080Y-110164880D03*
%TD*%
D11*
%TO.C,H2*%
X252476000Y-79756000D03*
D12*
X252476000Y-79756000D03*
%TD*%
D15*
%TO.C,N2*%
X133985000Y-110236000D03*
D16*
X133985000Y-104394000D03*
%TD*%
D10*
%TO.C,NX6*%
X230952040Y-105664000D03*
X221206060Y-109164120D03*
X219456000Y-105664000D03*
X219456000Y-101165660D03*
X219456000Y-96667320D03*
X221206060Y-93167200D03*
X225204020Y-92166440D03*
X229201980Y-93167200D03*
X230952040Y-96667320D03*
X230952040Y-101165660D03*
X229201980Y-109164120D03*
X225204020Y-110164880D03*
%TD*%
D17*
%TO.C,U1*%
X250320000Y-96189000D03*
%TD*%
D15*
%TO.C,N3*%
X188087000Y-92278200D03*
D16*
X188087000Y-98120200D03*
%TD*%
D18*
%TO.C,J6*%
X78994000Y-107442000D03*
X78994000Y-102362000D03*
%TD*%
D15*
%TO.C,N4*%
X188087000Y-110236000D03*
D16*
X188087000Y-104394000D03*
%TD*%
D10*
%TO.C,NX4*%
X176850040Y-105719880D03*
X167104060Y-109220000D03*
X165354000Y-105719880D03*
X165354000Y-101221540D03*
X165354000Y-96723200D03*
X167104060Y-93223080D03*
X171102020Y-92222320D03*
X175099980Y-93223080D03*
X176850040Y-96723200D03*
X176850040Y-101221540D03*
X175099980Y-109220000D03*
X171102020Y-110220760D03*
%TD*%
D15*
%TO.C,N1*%
X133985000Y-92265500D03*
D16*
X133985000Y-98107500D03*
%TD*%
D10*
%TO.C,NX2*%
X122715020Y-105714800D03*
X112969040Y-109214920D03*
X111218980Y-105714800D03*
X111218980Y-101216460D03*
X111218980Y-96718120D03*
X112969040Y-93218000D03*
X116967000Y-92217240D03*
X120964960Y-93218000D03*
X122715020Y-96718120D03*
X122715020Y-101216460D03*
X120964960Y-109214920D03*
X116967000Y-110215680D03*
%TD*%
D18*
%TO.C,J5*%
X73279000Y-107442000D03*
X73279000Y-102362000D03*
%TD*%
D11*
%TO.C,H4*%
X69596000Y-122682000D03*
D12*
X69596000Y-122682000D03*
%TD*%
D10*
%TO.C,NX3*%
X156718000Y-105717340D03*
X146972020Y-109217460D03*
X145221960Y-105717340D03*
X145221960Y-101219000D03*
X145221960Y-96720660D03*
X146972020Y-93220540D03*
X150969980Y-92219780D03*
X154967940Y-93220540D03*
X156718000Y-96720660D03*
X156718000Y-101219000D03*
X154967940Y-109217460D03*
X150969980Y-110218220D03*
%TD*%
D19*
%TO.C,J2*%
X218211400Y-121767600D03*
D20*
X220751400Y-121767600D03*
X223291400Y-121767600D03*
%TD*%
D19*
%TO.C,J3*%
X251709000Y-105664000D03*
D20*
X254249000Y-105664000D03*
%TD*%
D19*
%TO.C,J10*%
X131460000Y-122555000D03*
D20*
X134000000Y-122555000D03*
X136540000Y-122555000D03*
%TD*%
D21*
%TO.C,J1*%
X250539000Y-112014000D03*
D22*
X248539000Y-112014000D03*
X246539000Y-112014000D03*
X244539000Y-112014000D03*
%TD*%
D23*
%TO.C,J7*%
X72898000Y-96944200D03*
D24*
X72898000Y-91944200D03*
X72898000Y-86944200D03*
%TD*%
D19*
%TO.C,J8*%
X243559500Y-78359000D03*
D20*
X246099500Y-78359000D03*
%TD*%
D19*
%TO.C,J9*%
X190627000Y-122555000D03*
D20*
X188087000Y-122555000D03*
X185547000Y-122555000D03*
%TD*%
D19*
%TO.C,J4*%
X81280000Y-80264000D03*
D20*
X81280000Y-82804000D03*
X81280000Y-85344000D03*
X81280000Y-87884000D03*
X81280000Y-90424000D03*
%TD*%
M02*
