M48
; DRILL file {KiCad 8.0.4-8.0.4-0~ubuntu22.04.1} date 2024-08-07T15:41:42-0700
; FORMAT={-:-/ absolute / metric / decimal}
; #@! TF.CreationDate,2024-08-07T15:41:42-07:00
; #@! TF.GenerationSoftware,Kicad,Pcbnew,8.0.4-8.0.4-0~ubuntu22.04.1
; #@! TF.FileFunction,Plated,1,2,PTH
FMAT,2
METRIC
; #@! TA.AperFunction,Plated,PTH,ViaDrill
T1C0.300
; #@! TA.AperFunction,Plated,PTH,ComponentDrill
T2C0.599
; #@! TA.AperFunction,Plated,PTH,ComponentDrill
T3C0.750
; #@! TA.AperFunction,Plated,PTH,ComponentDrill
T4C1.000
; #@! TA.AperFunction,Plated,PTH,ComponentDrill
T5C1.300
; #@! TA.AperFunction,Plated,PTH,ComponentDrill
T6C1.320
; #@! TA.AperFunction,Plated,PTH,ComponentDrill
T7C1.550
; #@! TA.AperFunction,Plated,PTH,ComponentDrill
T8C1.598
; #@! TA.AperFunction,Plated,PTH,ComponentDrill
T9C2.400
; #@! TA.AperFunction,Plated,PTH,ComponentDrill
T10C3.200
%
G90
G05
T1
X73.406Y-116.459
X78.994Y-116.459
X83.922Y-79.781
X85.09Y-77.851
X87.986Y-99.009
X88.787Y-109.853
X88.798Y-92.558
X91.44Y-80.899
X92.71Y-81.534
X92.862Y-88.925
X92.862Y-113.508
X93.98Y-82.169
X95.148Y-120.65
X95.885Y-99.568
X96.876Y-87.935
X96.876Y-106.934
X97.434Y-83.718
X97.757Y-97.285
X98.171Y-78.74
X100.805Y-102.873
X100.863Y-88.925
X101.448Y-79.781
X102.616Y-77.851
X104.131Y-110.007
X104.496Y-92.431
X105.41Y-99.568
X108.712Y-102.87
X108.966Y-80.899
X109.363Y-109.982
X109.372Y-92.431
X110.236Y-81.534
X110.236Y-85.344
X111.506Y-82.169
X112.954Y-113.513
X112.979Y-88.925
X113.538Y-104.902
X114.935Y-78.74
X114.986Y-83.718
X115.265Y-120.65
X115.951Y-99.568
X116.967Y-87.884
X117.526Y-106.909
X117.893Y-97.278
X120.941Y-102.866
X120.955Y-88.925
X123.317Y-78.74
X125.035Y-109.855
X125.044Y-92.558
X125.832Y-79.756
X127.0Y-77.846
X127.0Y-101.219
X132.334Y-99.568
X133.35Y-80.899
X133.985Y-88.417
X133.985Y-114.097
X134.0Y-124.452
X134.62Y-81.534
X135.89Y-82.169
X139.319Y-78.74
X139.37Y-83.718
X140.335Y-102.969
X140.919Y-101.219
X140.97Y-78.74
X142.9Y-92.558
X142.9Y-109.855
X142.977Y-79.781
X144.145Y-77.851
X146.964Y-88.925
X146.964Y-113.513
X147.041Y-104.902
X149.25Y-120.65
X149.987Y-99.568
X150.495Y-80.899
X150.952Y-87.935
X150.978Y-106.909
X151.765Y-81.534
X151.892Y-97.282
X153.035Y-82.169
X154.686Y-85.29
X154.94Y-102.87
X154.965Y-88.925
X156.464Y-78.768
X156.515Y-83.718
X158.064Y-110.007
X158.572Y-92.433
X158.798Y-78.74
X159.512Y-99.568
X160.553Y-79.781
X161.722Y-77.851
X162.814Y-102.87
X163.49Y-92.431
X163.5Y-110.007
X167.081Y-88.925
X167.107Y-113.513
X168.072Y-80.899
X169.342Y-81.534
X169.393Y-120.65
X170.053Y-99.568
X170.612Y-82.169
X171.094Y-87.909
X171.094Y-106.909
X171.958Y-97.282
X174.066Y-78.74
X174.092Y-83.718
X175.006Y-102.87
X175.108Y-88.925
X175.387Y-77.851
X179.172Y-92.558
X179.172Y-98.857
X179.172Y-105.181
X179.172Y-109.88
X180.162Y-113.106
X180.213Y-78.74
X181.153Y-101.236
X181.356Y-84.582
X182.347Y-79.756
X183.515Y-77.861
X186.436Y-99.568
X188.087Y-88.392
X188.087Y-114.122
X188.087Y-124.452
X189.865Y-80.899
X191.135Y-81.534
X192.348Y-86.995
X192.405Y-82.169
X194.564Y-102.918
X195.072Y-101.194
X195.834Y-78.74
X195.834Y-83.693
X197.002Y-92.532
X197.044Y-109.83
X198.374Y-78.74
X200.635Y-79.756
X200.66Y-82.931
X201.066Y-88.875
X201.143Y-113.462
X201.803Y-77.851
X202.946Y-82.931
X203.403Y-120.65
X204.089Y-99.568
X205.105Y-87.884
X205.105Y-106.858
X205.999Y-97.229
X208.153Y-80.899
X209.047Y-102.817
X209.118Y-88.875
X209.423Y-81.534
X210.693Y-82.169
X212.613Y-109.952
X212.75Y-92.354
X213.589Y-113.182
X213.614Y-99.568
X214.122Y-78.74
X214.122Y-83.693
X216.916Y-102.87
X217.272Y-79.756
X217.602Y-92.38
X217.694Y-109.931
X218.44Y-77.851
X218.995Y-85.597
X221.209Y-88.875
X221.259Y-104.851
X221.259Y-113.462
X224.155Y-99.568
X224.79Y-80.899
X225.196Y-106.858
X225.222Y-87.884
X226.056Y-97.228
X226.06Y-81.534
X227.33Y-82.169
X228.473Y-123.063
X228.473Y-123.952
X228.516Y-124.795
X228.6Y-82.169
X229.104Y-102.816
X229.21Y-88.875
X229.235Y-80.899
X229.87Y-82.169
X231.14Y-77.851
X231.648Y-85.014
X233.274Y-91.378
X233.274Y-92.532
X233.299Y-86.741
X233.299Y-109.804
X233.883Y-77.267
X234.061Y-103.048
X235.204Y-106.299
X235.331Y-80.899
X236.652Y-88.976
X237.109Y-124.968
X237.973Y-122.377
X238.252Y-80.899
X238.252Y-86.106
X239.083Y-93.403
X239.42Y-77.267
X239.649Y-83.693
X240.157Y-124.968
X241.173Y-80.899
X241.554Y-89.967
X242.57Y-101.854
X242.824Y-96.19
X242.824Y-97.79
X242.875Y-84.328
X242.875Y-88.773
X243.434Y-108.585
X243.459Y-94.59
X243.459Y-97.003
X243.459Y-98.603
X243.459Y-100.178
X243.459Y-103.378
X243.459Y-104.775
X243.459Y-106.553
X246.837Y-84.328
X248.158Y-82.601
X249.936Y-104.775
X249.936Y-106.553
X249.936Y-110.236
X250.317Y-91.186
X251.663Y-108.585
X252.73Y-91.186
X252.755Y-84.328
X252.984Y-114.3
X254.762Y-84.328
T2
X133.985Y-92.265
X133.985Y-98.108
X133.985Y-104.394
X133.985Y-110.236
X188.087Y-92.278
X188.087Y-98.12
X188.087Y-104.394
X188.087Y-110.236
T3
X244.539Y-112.014
X246.539Y-112.014
X248.539Y-112.014
X250.539Y-112.014
T4
X81.28Y-80.264
X81.28Y-82.804
X81.28Y-85.344
X81.28Y-87.884
X81.28Y-90.424
X131.46Y-122.555
X134.0Y-122.555
X136.54Y-122.555
X185.547Y-122.555
X188.087Y-122.555
X190.627Y-122.555
X218.211Y-121.768
X220.751Y-121.768
X223.291Y-121.768
X243.559Y-78.359
X246.099Y-78.359
X251.709Y-105.664
X254.249Y-105.664
T5
X72.898Y-86.944
X72.898Y-91.944
X72.898Y-96.944
T6
X73.279Y-102.362
X73.279Y-107.442
X78.994Y-102.362
X78.994Y-107.442
T7
X246.647Y-117.348
X251.447Y-117.348
T8
X91.12Y-96.723
X91.12Y-101.222
X91.12Y-105.72
X92.87Y-93.223
X92.87Y-109.22
X96.868Y-92.222
X96.868Y-110.221
X100.866Y-93.223
X100.866Y-109.22
X102.616Y-96.723
X102.616Y-101.222
X102.616Y-105.72
X111.219Y-96.718
X111.219Y-101.216
X111.219Y-105.715
X112.969Y-93.218
X112.969Y-109.215
X116.967Y-92.217
X116.967Y-110.216
X120.965Y-93.218
X120.965Y-109.215
X122.715Y-96.718
X122.715Y-101.216
X122.715Y-105.715
X145.222Y-96.721
X145.222Y-101.219
X145.222Y-105.717
X146.972Y-93.221
X146.972Y-109.217
X150.97Y-92.22
X150.97Y-110.218
X154.968Y-93.221
X154.968Y-109.217
X156.718Y-96.721
X156.718Y-101.219
X156.718Y-105.717
X165.354Y-96.723
X165.354Y-101.222
X165.354Y-105.72
X167.104Y-93.223
X167.104Y-109.22
X171.102Y-92.222
X171.102Y-110.221
X175.1Y-93.223
X175.1Y-109.22
X176.85Y-96.723
X176.85Y-101.222
X176.85Y-105.72
X199.362Y-96.667
X199.362Y-101.166
X199.362Y-105.664
X201.112Y-93.167
X201.112Y-109.164
X205.11Y-92.166
X205.11Y-110.165
X209.108Y-93.167
X209.108Y-109.164
X210.858Y-96.667
X210.858Y-101.166
X210.858Y-105.664
X219.456Y-96.667
X219.456Y-101.166
X219.456Y-105.664
X221.206Y-93.167
X221.206Y-109.164
X225.204Y-92.166
X225.204Y-110.165
X229.202Y-93.167
X229.202Y-109.164
X230.952Y-96.667
X230.952Y-101.166
X230.952Y-105.664
T9
X250.32Y-96.189
T10
X69.596Y-79.756
X69.596Y-122.682
X252.476Y-79.756
X252.476Y-122.657
M30
