<?xml version="1.0" encoding="UTF-8" standalone="no"?>
<svg
   version="1.1"
   width="297.0022mm"
   height="210.0072mm"
   viewBox="0.0000 0.0000 297.0022 210.0072"
   id="svg4483"
   sodipodi:docname="front-panel.svg"
   inkscape:version="1.3.1 (9b9bdc1480, 2023-11-25, custom)"
   xmlns:inkscape="http://www.inkscape.org/namespaces/inkscape"
   xmlns:sodipodi="http://sodipodi.sourceforge.net/DTD/sodipodi-0.dtd"
   xmlns="http://www.w3.org/2000/svg"
   xmlns:svg="http://www.w3.org/2000/svg"
   xmlns:rdf="http://www.w3.org/1999/02/22-rdf-syntax-ns#"
   xmlns:cc="http://creativecommons.org/ns#"
   xmlns:dc="http://purl.org/dc/elements/1.1/">
  <defs
     id="defs4483" />
  <sodipodi:namedview
     id="namedview4483"
     pagecolor="#ffffff"
     bordercolor="#000000"
     borderopacity="0.25"
     inkscape:showpageshadow="2"
     inkscape:pageopacity="0.0"
     inkscape:pagecheckerboard="0"
     inkscape:deskcolor="#d1d1d1"
     inkscape:document-units="mm"
     inkscape:zoom="6.7563419"
     inkscape:cx="385.71168"
     inkscape:cy="440.03102"
     inkscape:window-width="3770"
     inkscape:window-height="2096"
     inkscape:window-x="70"
     inkscape:window-y="27"
     inkscape:window-maximized="1"
     inkscape:current-layer="g4388" />
  <title
     id="title1">SVG Image created as clock-F_Silkscreen.svg date 2024/07/23 21:27:27 </title>
  <desc
     id="desc1">Image generated by PCBNEW </desc>
  <g
     style="fill:#000000; fill-opacity:1.0000;stroke:#000000; stroke-opacity:1.0000; stroke-linecap:round; stroke-linejoin:round;"
     transform="translate(0 0) scale(1 1)"
     id="g1" />
  <g
     style="fill:none;  stroke:#000000; stroke-width:0.3000; stroke-opacity:1;  stroke-linecap:round; stroke-linejoin:round;"
     id="g850">
    <text
       x="178.0022"
       y="180.7572"
       textLength="0.9000"
       font-size="2.0000"
       lengthAdjust="spacingAndGlyphs"
       text-anchor="start"
       opacity="0"
       stroke-opacity="0"
       id="text848" />
    <g
       class="stroked-text"
       id="g849">
      <desc
         id="desc848" />
    </g>
  </g>
  <g
     style="fill:none;  stroke:#000000; stroke-width:0.1500; stroke-opacity:1;  stroke-linecap:round; stroke-linejoin:round;"
     id="g852">
    <text
       x="178.0022"
       y="177.7572"
       textLength="0.4500"
       font-size="2.0000"
       lengthAdjust="spacingAndGlyphs"
       text-anchor="start"
       opacity="0"
       stroke-opacity="0"
       id="text850" />
    <g
       class="stroked-text"
       id="g851">
      <desc
         id="desc850" />
    </g>
  </g>
  <g
     style="fill:none;  stroke:#000000; stroke-width:0.1500; stroke-opacity:1;  stroke-linecap:round; stroke-linejoin:round;"
     id="g854">
    <text
       x="178.0022"
       y="174.7572"
       textLength="0.4500"
       font-size="2.0000"
       lengthAdjust="spacingAndGlyphs"
       text-anchor="start"
       opacity="0"
       stroke-opacity="0"
       id="text852" />
    <g
       class="stroked-text"
       id="g853">
      <desc
         id="desc852" />
    </g>
  </g>
  <g
     style="fill:none;  stroke:#000000; stroke-width:0.1500; stroke-opacity:1;  stroke-linecap:round; stroke-linejoin:round;"
     id="g856">
    <text
       x="178.0022"
       y="171.7572"
       textLength="0.4500"
       font-size="2.0000"
       lengthAdjust="spacingAndGlyphs"
       text-anchor="start"
       opacity="0"
       stroke-opacity="0"
       id="text854" />
    <g
       class="stroked-text"
       id="g855">
      <desc
         id="desc854" />
    </g>
  </g>
  <g
     style="fill:none;  stroke:#000000; stroke-width:0.1500; stroke-opacity:1;  stroke-linecap:round; stroke-linejoin:round;"
     id="g858">
    <text
       x="178.0022"
       y="168.7572"
       textLength="0.4500"
       font-size="2.0000"
       lengthAdjust="spacingAndGlyphs"
       text-anchor="start"
       opacity="0"
       stroke-opacity="0"
       id="text856" />
    <g
       class="stroked-text"
       id="g857">
      <desc
         id="desc856" />
    </g>
  </g>
  <g
     style="fill:none;stroke:#f2eda1;stroke-width:0.254;stroke-linecap:round;stroke-linejoin:round;stroke-opacity:1"
     id="g3812"
     transform="translate(-19.842232,0.68202173)">
    <path
       d="M 86.9467,111.1428 V 91.3003"
       id="path3809" />
    <path
       d="m 106.7892,91.3003 v 19.8425"
       id="path3810" />
    <path
       d="M 106.7904,91.3017 A 12.952,12.952 0 0 0 86.9467,91.3003"
       id="path3811" />
    <path
       d="m 86.9455,111.1414 a 12.952,12.952 0 0 0 19.8437,0.001"
       id="path3812" />
  </g>
  <g
     style="fill:none;stroke:#f2eda1;stroke-width:0.254;stroke-linecap:round;stroke-linejoin:round;stroke-opacity:1"
     id="g4036"
     transform="translate(-19.842232,0.68202173)">
    <path
       d="M 195.1888,111.0869 V 91.2444"
       id="path4033" />
    <path
       d="m 215.0313,91.2444 v 19.8425"
       id="path4034" />
    <path
       d="M 215.0325,91.2458 A 12.952,12.952 0 0 0 195.1888,91.2444"
       id="path4035" />
    <path
       d="m 195.1876,111.0855 a 12.952,12.952 0 0 0 19.8437,0.001"
       id="path4036" />
  </g>
  <g
     style="fill:none;stroke:#f2eda1;stroke-width:0.127;stroke-linecap:round;stroke-linejoin:round;stroke-opacity:1"
     id="g4050"
     transform="translate(-19.842232,0.68202173)">
    <circle
       cx="133.985"
       cy="107.315"
       r="3.556"
       id="circle4049" />
  </g>
  <g
     style="fill:none;stroke:#f2eda1;stroke-width:0.254;stroke-linecap:round;stroke-linejoin:round;stroke-opacity:1"
     id="g4061"
     transform="translate(-19.842232,0.68202173)">
    <path
       d="M 215.2828,111.0869 V 91.2444"
       id="path4058" />
    <path
       d="m 235.1253,91.2444 v 19.8425"
       id="path4059" />
    <path
       d="M 235.1265,91.2458 A 12.952,12.952 0 0 0 215.2828,91.2444"
       id="path4060" />
    <path
       d="m 215.2816,111.0855 a 12.952,12.952 0 0 0 19.8437,0.001"
       id="path4061" />
  </g>
  <g
     style="fill:none;stroke:#f2eda1;stroke-width:0.127;stroke-linecap:round;stroke-linejoin:round;stroke-opacity:1"
     id="g4108"
     transform="translate(-19.842232,0.68202173)">
    <circle
       cx="188.08701"
       cy="95.199203"
       r="3.556"
       id="circle4108" />
  </g>
  <g
     style="fill:none;stroke:#f2eda1;stroke-width:0.127;stroke-linecap:round;stroke-linejoin:round;stroke-opacity:1"
     id="g4279"
     transform="translate(-19.842232,0.68202173)">
    <circle
       cx="188.08701"
       cy="107.315"
       r="3.556"
       id="circle4278" />
  </g>
  <g
     style="fill:none;stroke:#f2eda1;stroke-width:0.254;stroke-linecap:round;stroke-linejoin:round;stroke-opacity:1"
     id="g4296"
     transform="translate(-19.842232,0.68202173)">
    <path
       d="M 161.1808,111.1428 V 91.3003"
       id="path4293" />
    <path
       d="m 181.0233,91.3003 v 19.8425"
       id="path4294" />
    <path
       d="M 181.0245,91.3017 A 12.952,12.952 0 0 0 161.1808,91.3003"
       id="path4295" />
    <path
       d="m 161.1796,111.1414 a 12.952,12.952 0 0 0 19.8437,10e-4"
       id="path4296" />
  </g>
  <g
     style="fill:none;stroke:#f2eda1;stroke-width:0.127;stroke-linecap:round;stroke-linejoin:round;stroke-opacity:1"
     id="g4355"
     transform="translate(-19.842232,0.68202173)">
    <circle
       cx="133.985"
       cy="95.186501"
       r="3.556"
       id="circle4355" />
  </g>
  <g
     style="fill:none;stroke:#f2eda1;stroke-width:0.254;stroke-linecap:round;stroke-linejoin:round;stroke-opacity:1"
     id="g4388"
     transform="translate(-19.842232,0.68202173)">
    <path
       d="M 107.0458,111.1377 V 91.2952"
       id="path4385" />
    <path
       d="m 126.8882,91.2952 v 19.8425"
       id="path4386" />
    <path
       d="M 126.8894,91.2966 A 12.952,12.952 0 0 0 107.0458,91.2952"
       id="path4387" />
    <path
       d="m 107.0446,112.19464 a 12.952,12.952 0 0 0 19.8436,10e-4"
       id="path4388" />
  </g>
  <g
     style="fill:none;stroke:#f2eda1;stroke-width:0.254;stroke-linecap:round;stroke-linejoin:round;stroke-opacity:1"
     id="g4475"
     transform="translate(-19.842232,0.68202173)">
    <path
       d="M 141.0487,111.1402 V 91.2978"
       id="path4472" />
    <path
       d="m 160.8912,91.2978 v 19.8424"
       id="path4473" />
    <path
       d="M 160.8924,91.2992 A 12.952,12.952 0 0 0 141.0487,91.2978"
       id="path4474" />
    <path
       d="m 141.0475,111.1388 a 12.952,12.952 0 0 0 19.8437,0.001"
       id="path4475" />
  </g>
  <g
     style="fill:none;stroke:#d0d2cd;stroke-width:0.05;stroke-linecap:round;stroke-linejoin:round;stroke-opacity:1"
     id="g4483"
     transform="translate(-19.842232,0.68202173)">
    <path
       d="m 252.476,126.2126 a 3.556,3.556 0 0 0 3.556,-3.556"
       id="path4476" />
    <path
       d="m 66.04,79.756 v 42.926"
       id="path4477" />
    <path
       d="M 252.476,76.2 H 69.596"
       id="path4478" />
    <path
       d="m 66.04,122.682 a 3.556,3.556 0 0 0 3.556,3.556"
       id="path4479" />
    <path
       d="M 256.032,79.756 A 3.556,3.556 0 0 0 252.476,76.2"
       id="path4480" />
    <path
       d="M 69.596,76.2 A 3.556,3.556 0 0 0 66.04,79.756"
       id="path4481" />
    <path
       d="M 256.032,122.6566 V 79.756"
       id="path4482" />
    <path
       d="m 69.596,126.238 182.88,-0.0254"
       id="path4483" />
  </g>
  <metadata
     id="metadata4483">
    <rdf:RDF>
      <cc:Work
         rdf:about="">
        <dc:title>SVG Image created as clock-F_Silkscreen.svg date 2024/07/23 21:27:27 </dc:title>
      </cc:Work>
    </rdf:RDF>
  </metadata>
</svg>
